<svg xmlns="http://www.w3.org/2000/svg" xmlns:xlink="http://www.w3.org/1999/xlink" width="500" zoomAndPan="magnify" viewBox="0 0 375 374.999991" height="500" preserveAspectRatio="xMidYMid meet" version="1.0"><defs><g/><clipPath id="2f56de9b4b"><path d="M 135 2.433594 L 241 2.433594 L 241 121 L 135 121 Z M 135 2.433594 " clip-rule="nonzero"/></clipPath><clipPath id="4732241d63"><path d="M 135 254 L 241 254 L 241 372.933594 L 135 372.933594 Z M 135 254 " clip-rule="nonzero"/></clipPath><clipPath id="adba7b49af"><path d="M 8.21875 121 L 114 121 L 114 241 L 8.21875 241 Z M 8.21875 121 " clip-rule="nonzero"/></clipPath><clipPath id="a01dd94793"><path d="M 261 121 L 366.71875 121 L 366.71875 241 L 261 241 Z M 261 121 " clip-rule="nonzero"/></clipPath></defs><path fill="#2e7071" d="M 361.046875 234.71875 L 361.046875 235.527344 L 267.121094 235.527344 L 267.121094 223.898438 C 267.121094 200.867188 279.832031 181.488281 296.644531 176.84375 C 290.378906 171.75 286.277344 164.136719 286.277344 155.4375 C 286.269531 154.523438 286.304688 153.613281 286.382812 152.703125 C 286.464844 151.789062 286.589844 150.886719 286.757812 149.988281 C 286.929688 149.089844 287.140625 148.203125 287.398438 147.324219 C 287.65625 146.445312 287.957031 145.585938 288.300781 144.738281 C 288.644531 143.890625 289.027344 143.0625 289.453125 142.25 C 289.875 141.441406 290.339844 140.65625 290.84375 139.890625 C 291.34375 139.128906 291.882812 138.390625 292.460938 137.679688 C 293.035156 136.96875 293.644531 136.289062 294.289062 135.640625 C 294.929688 134.988281 295.605469 134.375 296.308594 133.789062 C 297.011719 133.207031 297.742188 132.660156 298.5 132.148438 C 299.257812 131.636719 300.039062 131.164062 300.84375 130.730469 C 301.648438 130.296875 302.472656 129.902344 303.316406 129.550781 C 304.160156 129.199219 305.019531 128.890625 305.894531 128.621094 C 306.769531 128.355469 307.65625 128.132812 308.550781 127.953125 C 309.449219 127.773438 310.351562 127.636719 311.261719 127.546875 C 312.171875 127.457031 313.082031 127.414062 313.996094 127.414062 C 314.910156 127.414062 315.824219 127.457031 316.734375 127.546875 C 317.644531 127.636719 318.546875 127.773438 319.441406 127.953125 C 320.339844 128.132812 321.222656 128.355469 322.097656 128.621094 C 322.972656 128.890625 323.832031 129.199219 324.675781 129.550781 C 325.519531 129.902344 326.34375 130.296875 327.148438 130.730469 C 327.953125 131.164062 328.734375 131.636719 329.492188 132.148438 C 330.25 132.660156 330.980469 133.207031 331.6875 133.789062 C 332.390625 134.375 333.0625 134.988281 333.707031 135.640625 C 334.347656 136.289062 334.957031 136.96875 335.535156 137.679688 C 336.109375 138.390625 336.648438 139.128906 337.152344 139.890625 C 337.652344 140.65625 338.117188 141.441406 338.542969 142.25 C 338.96875 143.0625 339.351562 143.890625 339.695312 144.738281 C 340.035156 145.585938 340.335938 146.445312 340.59375 147.324219 C 340.851562 148.203125 341.066406 149.089844 341.234375 149.988281 C 341.40625 150.886719 341.53125 151.789062 341.609375 152.703125 C 341.691406 153.613281 341.726562 154.523438 341.714844 155.4375 C 341.714844 164.089844 337.65625 171.707031 331.441406 176.800781 C 348.292969 181.355469 361.046875 200.824219 361.046875 223.898438 Z M 361.046875 234.71875 " fill-opacity="1" fill-rule="nonzero"/><path fill="#2e7071" d="M 107.847656 234.71875 L 107.847656 235.527344 L 13.917969 235.527344 L 13.917969 223.898438 C 13.917969 200.867188 26.632812 181.488281 43.441406 176.84375 C 37.179688 171.75 33.078125 164.136719 33.078125 155.4375 C 33.066406 154.523438 33.101562 153.613281 33.183594 152.703125 C 33.261719 151.789062 33.386719 150.886719 33.554688 149.988281 C 33.726562 149.089844 33.941406 148.203125 34.195312 147.324219 C 34.453125 146.445312 34.753906 145.585938 35.097656 144.738281 C 35.441406 143.890625 35.824219 143.0625 36.25 142.25 C 36.671875 141.441406 37.136719 140.65625 37.640625 139.890625 C 38.144531 139.128906 38.683594 138.390625 39.257812 137.679688 C 39.832031 136.96875 40.441406 136.289062 41.085938 135.640625 C 41.726562 134.988281 42.402344 134.371094 43.105469 133.789062 C 43.808594 133.207031 44.539062 132.660156 45.296875 132.148438 C 46.054688 131.636719 46.839844 131.164062 47.644531 130.730469 C 48.449219 130.296875 49.273438 129.902344 50.117188 129.550781 C 50.960938 129.199219 51.816406 128.890625 52.691406 128.621094 C 53.566406 128.355469 54.453125 128.132812 55.347656 127.953125 C 56.246094 127.773438 57.148438 127.636719 58.058594 127.546875 C 58.96875 127.457031 59.878906 127.410156 60.792969 127.410156 C 61.707031 127.410156 62.621094 127.457031 63.53125 127.546875 C 64.441406 127.636719 65.34375 127.773438 66.238281 127.953125 C 67.136719 128.132812 68.023438 128.355469 68.894531 128.621094 C 69.769531 128.890625 70.628906 129.199219 71.472656 129.550781 C 72.316406 129.902344 73.140625 130.296875 73.945312 130.730469 C 74.75 131.164062 75.53125 131.636719 76.289062 132.148438 C 77.046875 132.660156 77.78125 133.207031 78.484375 133.789062 C 79.1875 134.371094 79.859375 134.988281 80.503906 135.640625 C 81.148438 136.289062 81.753906 136.96875 82.332031 137.679688 C 82.90625 138.390625 83.445312 139.128906 83.949219 139.890625 C 84.453125 140.65625 84.914062 141.441406 85.339844 142.25 C 85.765625 143.0625 86.148438 143.890625 86.492188 144.738281 C 86.835938 145.585938 87.132812 146.445312 87.390625 147.324219 C 87.648438 148.203125 87.863281 149.089844 88.03125 149.988281 C 88.203125 150.886719 88.328125 151.789062 88.40625 152.703125 C 88.488281 153.613281 88.523438 154.523438 88.511719 155.4375 C 88.511719 164.089844 84.457031 171.707031 78.238281 176.800781 C 95.089844 181.355469 107.847656 200.824219 107.847656 223.898438 Z M 107.847656 234.71875 " fill-opacity="1" fill-rule="nonzero"/><path fill="#2e7071" d="M 234.808594 368.933594 L 140.925781 368.933594 L 140.925781 356.085938 C 140.925781 333.058594 153.59375 313.679688 170.402344 309.035156 C 164.136719 303.9375 160.085938 296.328125 160.085938 287.628906 C 160.070312 286.710938 160.101562 285.796875 160.175781 284.882812 C 160.253906 283.972656 160.375 283.066406 160.542969 282.164062 C 160.707031 281.261719 160.917969 280.371094 161.171875 279.492188 C 161.429688 278.613281 161.726562 277.746094 162.066406 276.898438 C 162.40625 276.046875 162.789062 275.214844 163.210938 274.402344 C 163.636719 273.589844 164.097656 272.800781 164.597656 272.035156 C 165.101562 271.265625 165.636719 270.527344 166.214844 269.8125 C 166.789062 269.101562 167.398438 268.417969 168.039062 267.765625 C 168.683594 267.113281 169.355469 266.492188 170.058594 265.90625 C 170.765625 265.320312 171.496094 264.769531 172.253906 264.257812 C 173.011719 263.742188 173.796875 263.269531 174.601562 262.832031 C 175.40625 262.398438 176.234375 262.003906 177.078125 261.648438 C 177.921875 261.292969 178.78125 260.984375 179.660156 260.714844 C 180.535156 260.445312 181.421875 260.222656 182.320312 260.042969 C 183.21875 259.859375 184.121094 259.726562 185.035156 259.636719 C 185.945312 259.542969 186.859375 259.5 187.777344 259.5 C 188.691406 259.5 189.605469 259.542969 190.519531 259.632812 C 191.429688 259.726562 192.335938 259.859375 193.234375 260.042969 C 194.128906 260.222656 195.019531 260.445312 195.894531 260.714844 C 196.769531 260.984375 197.628906 261.292969 198.476562 261.648438 C 199.320312 262.003906 200.144531 262.398438 200.953125 262.832031 C 201.757812 263.269531 202.539062 263.742188 203.296875 264.257812 C 204.058594 264.769531 204.789062 265.320312 205.492188 265.90625 C 206.195312 266.492188 206.871094 267.113281 207.511719 267.765625 C 208.15625 268.417969 208.765625 269.101562 209.339844 269.8125 C 209.914062 270.527344 210.453125 271.265625 210.953125 272.035156 C 211.457031 272.800781 211.917969 273.589844 212.339844 274.402344 C 212.765625 275.214844 213.144531 276.046875 213.488281 276.898438 C 213.828125 277.746094 214.125 278.613281 214.378906 279.492188 C 214.632812 280.371094 214.84375 281.261719 215.011719 282.164062 C 215.175781 283.066406 215.300781 283.972656 215.375 284.882812 C 215.453125 285.796875 215.484375 286.710938 215.46875 287.628906 C 215.46875 296.28125 211.414062 303.898438 205.195312 308.988281 C 222.050781 313.542969 234.804688 333.011719 234.804688 356.085938 L 234.804688 368.933594 Z M 234.808594 368.933594 " fill-opacity="1" fill-rule="nonzero"/><path fill="#2e7071" d="M 234.808594 116.179688 L 140.925781 116.179688 L 140.925781 104.375 C 140.925781 81.34375 153.59375 61.960938 170.402344 57.320312 C 164.136719 52.222656 160.085938 44.566406 160.085938 35.914062 C 160.070312 34.996094 160.101562 34.082031 160.175781 33.171875 C 160.253906 32.257812 160.375 31.351562 160.542969 30.449219 C 160.707031 29.546875 160.917969 28.660156 161.171875 27.777344 C 161.429688 26.898438 161.726562 26.03125 162.066406 25.183594 C 162.40625 24.332031 162.789062 23.5 163.210938 22.6875 C 163.636719 21.875 164.097656 21.085938 164.597656 20.320312 C 165.101562 19.550781 165.636719 18.8125 166.214844 18.097656 C 166.789062 17.386719 167.398438 16.703125 168.039062 16.050781 C 168.683594 15.398438 169.355469 14.777344 170.058594 14.191406 C 170.765625 13.605469 171.496094 13.054688 172.253906 12.542969 C 173.011719 12.03125 173.796875 11.554688 174.601562 11.117188 C 175.40625 10.683594 176.234375 10.289062 177.078125 9.933594 C 177.921875 9.582031 178.78125 9.269531 179.660156 9 C 180.535156 8.730469 181.421875 8.507812 182.320312 8.328125 C 183.21875 8.148438 184.121094 8.011719 185.035156 7.921875 C 185.945312 7.828125 186.859375 7.785156 187.777344 7.785156 C 188.691406 7.785156 189.605469 7.828125 190.519531 7.921875 C 191.429688 8.011719 192.335938 8.148438 193.234375 8.328125 C 194.128906 8.507812 195.019531 8.730469 195.894531 9 C 196.769531 9.269531 197.628906 9.582031 198.476562 9.933594 C 199.320312 10.289062 200.144531 10.683594 200.953125 11.117188 C 201.757812 11.554688 202.539062 12.03125 203.296875 12.542969 C 204.058594 13.054688 204.789062 13.605469 205.492188 14.191406 C 206.195312 14.777344 206.871094 15.398438 207.511719 16.050781 C 208.15625 16.703125 208.765625 17.386719 209.339844 18.097656 C 209.914062 18.8125 210.453125 19.550781 210.953125 20.320312 C 211.457031 21.085938 211.917969 21.875 212.339844 22.6875 C 212.765625 23.5 213.144531 24.332031 213.488281 25.183594 C 213.828125 26.03125 214.125 26.898438 214.378906 27.777344 C 214.632812 28.660156 214.84375 29.546875 215.011719 30.449219 C 215.175781 31.351562 215.300781 32.257812 215.375 33.171875 C 215.453125 34.082031 215.484375 34.996094 215.46875 35.914062 C 215.46875 44.566406 211.414062 52.183594 205.195312 57.277344 C 222.050781 61.828125 234.804688 81.25 234.804688 104.375 L 234.804688 116.179688 Z M 234.808594 116.179688 " fill-opacity="1" fill-rule="nonzero"/><path fill="#444343" d="M 88.601562 108.789062 C 88.0625 108.789062 87.53125 108.714844 87.015625 108.5625 C 86.496094 108.410156 86.011719 108.191406 85.558594 107.898438 C 85.101562 107.609375 84.699219 107.257812 84.347656 106.851562 C 83.992188 106.445312 83.703125 105.996094 83.480469 105.503906 C 83.253906 105.015625 83.101562 104.503906 83.027344 103.96875 C 82.949219 103.433594 82.949219 102.902344 83.023438 102.367188 C 83.097656 101.832031 83.25 101.320312 83.472656 100.828125 C 83.695312 100.339844 83.984375 99.886719 84.335938 99.480469 C 90.199219 92.667969 96.671875 86.492188 103.75 80.957031 C 111.605469 74.800781 120.035156 69.582031 129.046875 65.300781 C 129.382812 65.144531 129.730469 65.019531 130.089844 64.929688 C 130.449219 64.839844 130.8125 64.785156 131.183594 64.765625 C 131.550781 64.746094 131.921875 64.765625 132.285156 64.820312 C 132.652344 64.875 133.011719 64.960938 133.359375 65.085938 C 133.707031 65.210938 134.042969 65.371094 134.359375 65.558594 C 134.675781 65.75 134.972656 65.96875 135.246094 66.21875 C 135.523438 66.464844 135.769531 66.738281 135.988281 67.035156 C 136.210938 67.332031 136.402344 67.648438 136.558594 67.984375 C 136.71875 68.320312 136.84375 68.664062 136.933594 69.023438 C 137.023438 69.382812 137.078125 69.75 137.09375 70.117188 C 137.113281 70.488281 137.09375 70.855469 137.042969 71.222656 C 136.988281 71.589844 136.898438 71.945312 136.773438 72.296875 C 136.648438 72.644531 136.492188 72.976562 136.300781 73.292969 C 136.109375 73.613281 135.890625 73.910156 135.644531 74.183594 C 135.394531 74.457031 135.121094 74.707031 134.824219 74.925781 C 134.527344 75.148438 134.210938 75.335938 133.875 75.496094 C 125.617188 79.417969 117.886719 84.203125 110.691406 89.847656 C 104.191406 94.925781 98.25 100.589844 92.867188 106.835938 C 92.332031 107.457031 91.695312 107.9375 90.949219 108.28125 C 90.203125 108.621094 89.421875 108.792969 88.601562 108.789062 Z M 88.601562 108.789062 " fill-opacity="1" fill-rule="nonzero"/><path fill="#444343" d="M 285.695312 108.789062 C 284.875 108.792969 284.089844 108.621094 283.34375 108.28125 C 282.597656 107.9375 281.957031 107.457031 281.421875 106.832031 C 276.046875 100.585938 270.109375 94.921875 263.617188 89.84375 C 256.417969 84.195312 248.683594 79.40625 240.417969 75.480469 C 240.085938 75.324219 239.769531 75.132812 239.472656 74.914062 C 239.171875 74.691406 238.898438 74.445312 238.652344 74.171875 C 238.402344 73.898438 238.183594 73.601562 237.992188 73.28125 C 237.804688 72.964844 237.644531 72.632812 237.519531 72.285156 C 237.394531 71.933594 237.308594 71.578125 237.253906 71.210938 C 237.199219 70.84375 237.179688 70.476562 237.199219 70.109375 C 237.214844 69.738281 237.269531 69.375 237.359375 69.015625 C 237.449219 68.65625 237.574219 68.308594 237.734375 67.972656 C 237.890625 67.640625 238.082031 67.324219 238.300781 67.027344 C 238.523438 66.730469 238.769531 66.457031 239.042969 66.207031 C 239.316406 65.957031 239.613281 65.738281 239.929688 65.546875 C 240.25 65.359375 240.582031 65.199219 240.929688 65.074219 C 241.277344 64.953125 241.636719 64.863281 242.003906 64.808594 C 242.367188 64.753906 242.738281 64.734375 243.105469 64.753906 C 243.476562 64.773438 243.839844 64.824219 244.199219 64.914062 C 244.558594 65.003906 244.90625 65.128906 245.238281 65.289062 C 254.257812 69.570312 262.695312 74.792969 270.554688 80.953125 C 277.628906 86.484375 284.097656 92.65625 289.957031 99.464844 C 290.3125 99.875 290.597656 100.324219 290.824219 100.816406 C 291.046875 101.304688 291.195312 101.820312 291.273438 102.351562 C 291.347656 102.886719 291.347656 103.421875 291.269531 103.953125 C 291.191406 104.488281 291.042969 105 290.816406 105.492188 C 290.59375 105.980469 290.304688 106.429688 289.949219 106.835938 C 289.59375 107.246094 289.191406 107.59375 288.738281 107.886719 C 288.285156 108.175781 287.796875 108.398438 287.28125 108.550781 C 286.761719 108.703125 286.234375 108.777344 285.695312 108.777344 Z M 285.695312 108.789062 " fill-opacity="1" fill-rule="nonzero"/><path fill="#444343" d="M 131.46875 310.570312 C 130.625 310.570312 129.820312 310.390625 129.058594 310.027344 C 120.0625 305.742188 111.632812 300.539062 103.769531 294.421875 C 96.714844 288.863281 90.242188 282.691406 84.355469 275.910156 C 84.132812 275.628906 83.9375 275.328125 83.769531 275.007812 C 83.601562 274.691406 83.46875 274.359375 83.363281 274.011719 C 83.261719 273.667969 83.191406 273.316406 83.15625 272.960938 C 83.117188 272.601562 83.117188 272.242188 83.148438 271.882812 C 83.183594 271.527344 83.25 271.175781 83.347656 270.828125 C 83.449219 270.484375 83.582031 270.148438 83.746094 269.828125 C 83.910156 269.507812 84.101562 269.207031 84.324219 268.921875 C 84.546875 268.640625 84.792969 268.378906 85.0625 268.144531 C 85.335938 267.90625 85.625 267.699219 85.9375 267.519531 C 86.25 267.339844 86.574219 267.191406 86.914062 267.070312 C 87.253906 266.953125 87.601562 266.871094 87.960938 266.820312 C 88.316406 266.765625 88.671875 266.75 89.035156 266.769531 C 89.394531 266.785156 89.746094 266.835938 90.097656 266.921875 C 90.445312 267.007812 90.785156 267.125 91.113281 267.277344 C 91.4375 267.425781 91.75 267.605469 92.042969 267.816406 C 92.332031 268.023438 92.605469 268.261719 92.851562 268.523438 C 98.261719 274.757812 104.210938 280.433594 110.695312 285.542969 C 117.902344 291.152344 125.625 295.921875 133.875 299.84375 C 134.449219 300.117188 134.964844 300.480469 135.421875 300.929688 C 135.875 301.382812 136.242188 301.894531 136.519531 302.46875 C 136.800781 303.042969 136.976562 303.648438 137.050781 304.285156 C 137.125 304.917969 137.089844 305.550781 136.949219 306.171875 C 136.808594 306.796875 136.570312 307.378906 136.230469 307.921875 C 135.890625 308.464844 135.472656 308.933594 134.972656 309.335938 C 134.472656 309.734375 133.921875 310.039062 133.316406 310.25 C 132.714844 310.464844 132.09375 310.570312 131.453125 310.570312 Z M 131.46875 310.570312 " fill-opacity="1" fill-rule="nonzero"/><path fill="#444343" d="M 242.835938 310.570312 C 242.195312 310.570312 241.574219 310.464844 240.972656 310.25 C 240.367188 310.039062 239.816406 309.734375 239.316406 309.332031 C 238.820312 308.933594 238.398438 308.460938 238.0625 307.921875 C 237.722656 307.378906 237.480469 306.796875 237.34375 306.171875 C 237.203125 305.546875 237.167969 304.917969 237.242188 304.285156 C 237.316406 303.648438 237.492188 303.042969 237.773438 302.46875 C 238.050781 301.894531 238.417969 301.378906 238.871094 300.929688 C 239.324219 300.480469 239.839844 300.117188 240.417969 299.84375 C 248.675781 295.914062 256.410156 291.140625 263.621094 285.519531 C 270.097656 280.421875 276.035156 274.757812 281.4375 268.53125 C 281.683594 268.269531 281.953125 268.035156 282.246094 267.824219 C 282.539062 267.617188 282.851562 267.4375 283.175781 267.285156 C 283.503906 267.136719 283.84375 267.019531 284.191406 266.933594 C 284.542969 266.847656 284.894531 266.796875 285.253906 266.777344 C 285.613281 266.761719 285.972656 266.777344 286.328125 266.828125 C 286.683594 266.878906 287.035156 266.964844 287.375 267.082031 C 287.714844 267.199219 288.039062 267.347656 288.351562 267.527344 C 288.664062 267.710938 288.953125 267.917969 289.226562 268.152344 C 289.496094 268.390625 289.742188 268.648438 289.964844 268.933594 C 290.1875 269.21875 290.378906 269.519531 290.542969 269.839844 C 290.707031 270.160156 290.839844 270.492188 290.941406 270.839844 C 291.039062 271.183594 291.105469 271.535156 291.140625 271.894531 C 291.171875 272.253906 291.171875 272.609375 291.132812 272.96875 C 291.097656 273.328125 291.027344 273.679688 290.925781 274.023438 C 290.820312 274.367188 290.6875 274.699219 290.519531 275.019531 C 290.351562 275.335938 290.15625 275.636719 289.933594 275.917969 C 284.058594 282.691406 277.601562 288.855469 270.5625 294.410156 C 262.691406 300.542969 254.25 305.753906 245.242188 310.039062 C 244.476562 310.398438 243.675781 310.574219 242.835938 310.570312 Z M 242.835938 310.570312 " fill-opacity="1" fill-rule="nonzero"/><g clip-path="url(#2f56de9b4b)"><path fill="#444343" d="M 234.808594 120.824219 C 234.4375 120.824219 234.074219 120.789062 233.710938 120.71875 C 233.347656 120.644531 232.996094 120.539062 232.652344 120.398438 C 232.3125 120.253906 231.988281 120.082031 231.679688 119.875 C 231.371094 119.671875 231.085938 119.4375 230.824219 119.175781 C 230.5625 118.914062 230.332031 118.628906 230.125 118.320312 C 229.917969 118.015625 229.746094 117.6875 229.605469 117.347656 C 229.460938 117.007812 229.355469 116.652344 229.285156 116.289062 C 229.210938 115.929688 229.175781 115.5625 229.175781 115.191406 L 229.175781 104.375 C 229.175781 84.21875 218.472656 66.695312 203.730469 62.710938 C 203.230469 62.578125 202.757812 62.378906 202.3125 62.113281 C 201.867188 61.847656 201.464844 61.527344 201.109375 61.152344 C 200.753906 60.777344 200.453125 60.359375 200.210938 59.902344 C 199.972656 59.445312 199.796875 58.960938 199.6875 58.457031 C 199.578125 57.949219 199.539062 57.4375 199.574219 56.921875 C 199.605469 56.40625 199.707031 55.902344 199.878906 55.414062 C 200.050781 54.925781 200.285156 54.46875 200.582031 54.042969 C 200.878906 53.621094 201.226562 53.246094 201.628906 52.917969 C 202.21875 52.441406 202.777344 51.9375 203.316406 51.40625 C 203.851562 50.875 204.359375 50.316406 204.835938 49.730469 C 205.316406 49.148438 205.761719 48.539062 206.179688 47.910156 C 206.597656 47.277344 206.980469 46.628906 207.328125 45.957031 C 207.675781 45.289062 207.992188 44.601562 208.269531 43.902344 C 208.550781 43.199219 208.792969 42.484375 208.996094 41.757812 C 209.203125 41.03125 209.371094 40.296875 209.5 39.550781 C 209.632812 38.808594 209.722656 38.058594 209.777344 37.304688 C 209.828125 36.550781 209.84375 35.796875 209.820312 35.042969 C 209.796875 34.285156 209.730469 33.535156 209.628906 32.785156 C 209.527344 32.039062 209.390625 31.296875 209.210938 30.5625 C 209.035156 29.828125 208.820312 29.105469 208.566406 28.394531 C 208.3125 27.679688 208.027344 26.984375 207.703125 26.300781 C 207.378906 25.617188 207.019531 24.953125 206.628906 24.308594 C 206.238281 23.664062 205.8125 23.039062 205.355469 22.4375 C 204.902344 21.832031 204.414062 21.257812 203.898438 20.703125 C 203.382812 20.152344 202.84375 19.628906 202.273438 19.128906 C 201.703125 18.632812 201.109375 18.167969 200.492188 17.734375 C 199.875 17.296875 199.238281 16.894531 198.578125 16.523438 C 197.921875 16.152344 197.246094 15.816406 196.550781 15.515625 C 195.859375 15.21875 195.152344 14.953125 194.433594 14.722656 C 193.710938 14.496094 192.980469 14.304688 192.242188 14.152344 C 191.503906 14 190.757812 13.882812 190.003906 13.808594 C 189.253906 13.730469 188.5 13.695312 187.746094 13.695312 C 186.988281 13.695312 186.234375 13.734375 185.484375 13.8125 C 184.734375 13.890625 183.988281 14.007812 183.25 14.164062 C 182.507812 14.320312 181.78125 14.511719 181.058594 14.742188 C 180.339844 14.96875 179.632812 15.238281 178.941406 15.539062 C 178.25 15.839844 177.574219 16.179688 176.917969 16.550781 C 176.261719 16.921875 175.621094 17.328125 175.007812 17.765625 C 174.390625 18.199219 173.796875 18.667969 173.230469 19.167969 C 172.664062 19.664062 172.121094 20.191406 171.609375 20.742188 C 171.09375 21.296875 170.609375 21.875 170.15625 22.480469 C 169.699219 23.082031 169.277344 23.707031 168.886719 24.355469 C 168.496094 25 168.140625 25.667969 167.820312 26.347656 C 167.496094 27.03125 167.210938 27.730469 166.960938 28.445312 C 166.710938 29.15625 166.496094 29.878906 166.320312 30.613281 C 166.144531 31.347656 166.007812 32.089844 165.90625 32.839844 C 165.808594 33.589844 165.746094 34.339844 165.722656 35.097656 C 165.699219 35.851562 165.71875 36.605469 165.773438 37.359375 C 165.828125 38.113281 165.921875 38.859375 166.050781 39.605469 C 166.183594 40.347656 166.355469 41.082031 166.5625 41.808594 C 166.769531 42.535156 167.011719 43.25 167.292969 43.953125 C 167.574219 44.652344 167.890625 45.339844 168.242188 46.007812 C 168.59375 46.675781 168.976562 47.324219 169.394531 47.953125 C 169.8125 48.582031 170.261719 49.191406 170.742188 49.773438 C 171.222656 50.355469 171.730469 50.914062 172.269531 51.445312 C 172.804688 51.976562 173.367188 52.476562 173.957031 52.949219 C 174.359375 53.277344 174.707031 53.652344 175.003906 54.074219 C 175.300781 54.496094 175.535156 54.953125 175.710938 55.4375 C 175.882812 55.925781 175.984375 56.425781 176.019531 56.941406 C 176.054688 57.457031 176.019531 57.96875 175.910156 58.472656 C 175.804688 58.980469 175.632812 59.460938 175.394531 59.921875 C 175.15625 60.378906 174.859375 60.796875 174.503906 61.171875 C 174.152344 61.550781 173.753906 61.871094 173.3125 62.140625 C 172.871094 62.40625 172.398438 62.609375 171.902344 62.746094 C 157.21875 66.800781 146.5625 84.300781 146.5625 104.367188 L 146.5625 114.867188 C 146.558594 115.238281 146.523438 115.605469 146.449219 115.964844 C 146.378906 116.328125 146.269531 116.679688 146.128906 117.023438 C 145.988281 117.363281 145.8125 117.6875 145.605469 117.992188 C 145.402344 118.300781 145.167969 118.585938 144.90625 118.84375 C 144.644531 119.105469 144.359375 119.339844 144.054688 119.542969 C 143.746094 119.75 143.421875 119.921875 143.082031 120.0625 C 142.738281 120.203125 142.386719 120.3125 142.023438 120.382812 C 141.664062 120.457031 141.296875 120.492188 140.925781 120.492188 C 140.558594 120.492188 140.191406 120.457031 139.828125 120.382812 C 139.46875 120.3125 139.113281 120.203125 138.773438 120.0625 C 138.433594 119.921875 138.109375 119.75 137.800781 119.542969 C 137.492188 119.339844 137.207031 119.105469 136.949219 118.84375 C 136.6875 118.585938 136.453125 118.300781 136.246094 117.992188 C 136.042969 117.6875 135.867188 117.363281 135.726562 117.023438 C 135.582031 116.679688 135.476562 116.328125 135.402344 115.964844 C 135.332031 115.605469 135.292969 115.238281 135.292969 114.867188 L 135.292969 104.375 C 135.292969 82.992188 145.609375 63.765625 160.753906 55.265625 C 158.703125 52.453125 157.140625 49.390625 156.0625 46.082031 C 154.984375 42.773438 154.445312 39.378906 154.445312 35.898438 C 154.445312 34.804688 154.5 33.714844 154.609375 32.628906 C 154.714844 31.542969 154.875 30.464844 155.085938 29.394531 C 155.300781 28.324219 155.566406 27.265625 155.882812 26.222656 C 156.199219 25.175781 156.566406 24.152344 156.984375 23.140625 C 157.402344 22.132812 157.867188 21.148438 158.382812 20.183594 C 158.898438 19.222656 159.457031 18.289062 160.0625 17.378906 C 160.671875 16.472656 161.320312 15.597656 162.011719 14.753906 C 162.703125 13.910156 163.4375 13.101562 164.207031 12.328125 C 164.980469 11.558594 165.789062 10.824219 166.632812 10.132812 C 167.476562 9.441406 168.351562 8.789062 169.257812 8.183594 C 170.167969 7.578125 171.101562 7.019531 172.066406 6.503906 C 173.027344 5.988281 174.011719 5.523438 175.023438 5.105469 C 176.03125 4.6875 177.058594 4.320312 178.101562 4.003906 C 179.144531 3.6875 180.203125 3.421875 181.273438 3.207031 C 182.34375 2.996094 183.421875 2.835938 184.507812 2.726562 C 185.597656 2.621094 186.683594 2.566406 187.777344 2.566406 C 188.867188 2.566406 189.957031 2.621094 191.042969 2.726562 C 192.128906 2.835938 193.207031 2.996094 194.277344 3.207031 C 195.347656 3.421875 196.40625 3.6875 197.453125 4.003906 C 198.496094 4.320312 199.523438 4.6875 200.53125 5.105469 C 201.539062 5.523438 202.523438 5.988281 203.488281 6.503906 C 204.449219 7.019531 205.386719 7.578125 206.292969 8.183594 C 207.199219 8.789062 208.078125 9.441406 208.921875 10.132812 C 209.765625 10.824219 210.570312 11.558594 211.34375 12.328125 C 212.117188 13.101562 212.847656 13.910156 213.539062 14.753906 C 214.234375 15.597656 214.882812 16.472656 215.488281 17.378906 C 216.09375 18.289062 216.65625 19.222656 217.171875 20.183594 C 217.683594 21.148438 218.152344 22.132812 218.570312 23.140625 C 218.984375 24.152344 219.351562 25.175781 219.671875 26.222656 C 219.988281 27.265625 220.253906 28.324219 220.464844 29.394531 C 220.679688 30.464844 220.839844 31.542969 220.945312 32.628906 C 221.050781 33.714844 221.105469 34.804688 221.105469 35.898438 C 221.101562 39.355469 220.566406 42.730469 219.5 46.023438 C 218.433594 49.3125 216.882812 52.359375 214.851562 55.160156 C 230.074219 63.609375 240.441406 82.863281 240.441406 104.355469 L 240.441406 115.175781 C 240.445312 115.546875 240.410156 115.914062 240.335938 116.277344 C 240.265625 116.640625 240.160156 116.992188 240.019531 117.335938 C 239.878906 117.679688 239.703125 118.003906 239.5 118.3125 C 239.292969 118.621094 239.058594 118.90625 238.796875 119.167969 C 238.535156 119.433594 238.253906 119.667969 237.945312 119.871094 C 237.636719 120.078125 237.3125 120.253906 236.96875 120.394531 C 236.625 120.539062 236.273438 120.644531 235.910156 120.71875 C 235.546875 120.789062 235.179688 120.824219 234.808594 120.824219 Z M 234.808594 120.824219 " fill-opacity="1" fill-rule="nonzero"/></g><g clip-path="url(#4732241d63)"><path fill="#444343" d="M 234.808594 372.539062 C 234.4375 372.539062 234.074219 372.503906 233.710938 372.429688 C 233.347656 372.359375 232.996094 372.253906 232.652344 372.109375 C 232.3125 371.96875 231.988281 371.796875 231.679688 371.589844 C 231.371094 371.382812 231.085938 371.152344 230.824219 370.890625 C 230.5625 370.628906 230.332031 370.34375 230.125 370.035156 C 229.917969 369.726562 229.746094 369.402344 229.605469 369.0625 C 229.460938 368.71875 229.355469 368.367188 229.285156 368.003906 C 229.210938 367.640625 229.175781 367.277344 229.175781 366.90625 L 229.175781 356.085938 C 229.175781 335.933594 218.472656 318.414062 203.730469 314.429688 C 203.230469 314.296875 202.757812 314.09375 202.3125 313.828125 C 201.867188 313.566406 201.464844 313.246094 201.109375 312.867188 C 200.753906 312.492188 200.453125 312.074219 200.214844 311.617188 C 199.972656 311.160156 199.796875 310.675781 199.6875 310.171875 C 199.578125 309.664062 199.542969 309.152344 199.574219 308.636719 C 199.605469 308.121094 199.707031 307.617188 199.878906 307.128906 C 200.050781 306.640625 200.285156 306.183594 200.582031 305.757812 C 200.878906 305.335938 201.226562 304.957031 201.628906 304.628906 C 202.214844 304.15625 202.777344 303.652344 203.3125 303.121094 C 203.851562 302.589844 204.355469 302.03125 204.835938 301.445312 C 205.3125 300.859375 205.761719 300.253906 206.175781 299.625 C 206.59375 298.992188 206.976562 298.34375 207.324219 297.671875 C 207.675781 297.003906 207.988281 296.316406 208.265625 295.617188 C 208.546875 294.914062 208.789062 294.199219 208.992188 293.472656 C 209.199219 292.746094 209.367188 292.011719 209.496094 291.265625 C 209.625 290.523438 209.71875 289.773438 209.769531 289.019531 C 209.824219 288.265625 209.839844 287.511719 209.8125 286.757812 C 209.789062 286.003906 209.726562 285.25 209.625 284.503906 C 209.523438 283.753906 209.382812 283.011719 209.203125 282.277344 C 209.027344 281.546875 208.8125 280.820312 208.558594 280.109375 C 208.308594 279.398438 208.019531 278.699219 207.695312 278.019531 C 207.371094 277.335938 207.015625 276.671875 206.621094 276.027344 C 206.230469 275.382812 205.804688 274.757812 205.351562 274.15625 C 204.894531 273.554688 204.40625 272.976562 203.894531 272.425781 C 203.378906 271.871094 202.835938 271.347656 202.265625 270.851562 C 201.695312 270.355469 201.101562 269.890625 200.488281 269.453125 C 199.871094 269.019531 199.230469 268.617188 198.574219 268.246094 C 197.914062 267.875 197.238281 267.539062 196.546875 267.238281 C 195.851562 266.9375 195.144531 266.675781 194.425781 266.445312 C 193.707031 266.21875 192.976562 266.027344 192.238281 265.875 C 191.496094 265.722656 190.75 265.609375 190 265.53125 C 189.25 265.457031 188.496094 265.417969 187.742188 265.417969 C 186.984375 265.417969 186.230469 265.460938 185.480469 265.539062 C 184.730469 265.617188 183.984375 265.734375 183.246094 265.886719 C 182.503906 266.042969 181.777344 266.234375 181.058594 266.464844 C 180.335938 266.695312 179.632812 266.960938 178.941406 267.261719 C 178.246094 267.566406 177.574219 267.902344 176.914062 268.273438 C 176.257812 268.644531 175.621094 269.050781 175.003906 269.488281 C 174.390625 269.925781 173.796875 270.394531 173.230469 270.890625 C 172.660156 271.386719 172.121094 271.914062 171.605469 272.46875 C 171.09375 273.019531 170.609375 273.601562 170.152344 274.203125 C 169.699219 274.804688 169.277344 275.429688 168.886719 276.078125 C 168.496094 276.722656 168.140625 277.390625 167.820312 278.074219 C 167.496094 278.753906 167.210938 279.453125 166.960938 280.167969 C 166.710938 280.878906 166.496094 281.601562 166.320312 282.335938 C 166.144531 283.070312 166.007812 283.8125 165.90625 284.5625 C 165.808594 285.308594 165.746094 286.0625 165.722656 286.816406 C 165.703125 287.570312 165.71875 288.328125 165.773438 289.078125 C 165.828125 289.832031 165.921875 290.582031 166.054688 291.324219 C 166.183594 292.070312 166.355469 292.804688 166.5625 293.53125 C 166.769531 294.257812 167.015625 294.96875 167.292969 295.671875 C 167.574219 296.371094 167.890625 297.058594 168.242188 297.726562 C 168.59375 298.394531 168.976562 299.042969 169.394531 299.671875 C 169.8125 300.300781 170.261719 300.910156 170.742188 301.492188 C 171.222656 302.074219 171.730469 302.632812 172.269531 303.164062 C 172.804688 303.691406 173.367188 304.195312 173.957031 304.667969 C 174.359375 304.992188 174.710938 305.367188 175.007812 305.789062 C 175.304688 306.210938 175.542969 306.664062 175.714844 307.152344 C 175.890625 307.640625 175.996094 308.140625 176.03125 308.65625 C 176.066406 309.171875 176.03125 309.683594 175.925781 310.1875 C 175.820312 310.695312 175.648438 311.179688 175.410156 311.636719 C 175.171875 312.09375 174.875 312.511719 174.523438 312.890625 C 174.167969 313.269531 173.769531 313.589844 173.328125 313.859375 C 172.886719 314.125 172.417969 314.328125 171.917969 314.46875 C 157.238281 318.519531 146.578125 336.023438 146.578125 356.085938 L 146.578125 366.589844 C 146.578125 366.960938 146.542969 367.328125 146.472656 367.691406 C 146.398438 368.054688 146.292969 368.40625 146.152344 368.75 C 146.011719 369.089844 145.835938 369.417969 145.632812 369.726562 C 145.425781 370.035156 145.191406 370.320312 144.929688 370.582031 C 144.667969 370.84375 144.386719 371.078125 144.078125 371.28125 C 143.769531 371.488281 143.445312 371.664062 143.101562 371.804688 C 142.761719 371.945312 142.40625 372.054688 142.042969 372.125 C 141.679688 372.199219 141.3125 372.234375 140.945312 372.234375 C 140.574219 372.234375 140.207031 372.199219 139.84375 372.125 C 139.480469 372.054688 139.128906 371.945312 138.785156 371.804688 C 138.445312 371.664062 138.117188 371.488281 137.8125 371.28125 C 137.503906 371.078125 137.21875 370.84375 136.957031 370.582031 C 136.695312 370.320312 136.460938 370.035156 136.257812 369.726562 C 136.050781 369.417969 135.878906 369.089844 135.734375 368.75 C 135.59375 368.40625 135.488281 368.054688 135.417969 367.691406 C 135.34375 367.328125 135.308594 366.960938 135.308594 366.589844 L 135.308594 356.085938 C 135.308594 334.703125 145.621094 315.480469 160.769531 306.980469 C 158.71875 304.167969 157.15625 301.109375 156.078125 297.800781 C 155 294.488281 154.464844 291.09375 154.464844 287.613281 C 154.464844 286.523438 154.515625 285.433594 154.625 284.347656 C 154.730469 283.261719 154.890625 282.183594 155.105469 281.113281 C 155.316406 280.042969 155.582031 278.984375 155.898438 277.941406 C 156.214844 276.894531 156.582031 275.867188 157 274.859375 C 157.417969 273.851562 157.886719 272.867188 158.398438 271.902344 C 158.914062 270.941406 159.472656 270.003906 160.082031 269.097656 C 160.6875 268.191406 161.335938 267.3125 162.03125 266.46875 C 162.722656 265.625 163.453125 264.820312 164.226562 264.046875 C 164.996094 263.273438 165.804688 262.542969 166.648438 261.851562 C 167.492188 261.15625 168.367188 260.507812 169.277344 259.902344 C 170.183594 259.296875 171.121094 258.734375 172.082031 258.21875 C 173.042969 257.707031 174.03125 257.238281 175.039062 256.820312 C 176.046875 256.40625 177.074219 256.039062 178.117188 255.71875 C 179.164062 255.402344 180.21875 255.136719 181.292969 254.925781 C 182.363281 254.710938 183.441406 254.550781 184.527344 254.445312 C 185.613281 254.339844 186.703125 254.285156 187.792969 254.285156 C 188.886719 254.285156 189.972656 254.339844 191.058594 254.445312 C 192.144531 254.550781 193.226562 254.710938 194.296875 254.925781 C 195.367188 255.136719 196.421875 255.402344 197.46875 255.71875 C 198.511719 256.039062 199.539062 256.40625 200.546875 256.820312 C 201.554688 257.238281 202.542969 257.707031 203.503906 258.21875 C 204.46875 258.734375 205.402344 259.296875 206.308594 259.902344 C 207.21875 260.507812 208.09375 261.15625 208.9375 261.851562 C 209.78125 262.542969 210.589844 263.273438 211.359375 264.046875 C 212.132812 264.820312 212.863281 265.625 213.558594 266.46875 C 214.25 267.3125 214.898438 268.191406 215.503906 269.097656 C 216.113281 270.003906 216.671875 270.941406 217.1875 271.902344 C 217.703125 272.867188 218.167969 273.851562 218.585938 274.859375 C 219.003906 275.867188 219.371094 276.894531 219.6875 277.941406 C 220.003906 278.984375 220.269531 280.042969 220.480469 281.113281 C 220.695312 282.183594 220.855469 283.261719 220.960938 284.347656 C 221.070312 285.433594 221.121094 286.523438 221.121094 287.613281 C 221.121094 291.074219 220.585938 294.449219 219.515625 297.738281 C 218.449219 301.03125 216.898438 304.074219 214.871094 306.875 C 230.09375 315.332031 240.460938 334.585938 240.460938 356.074219 L 240.460938 366.890625 C 240.460938 367.261719 240.425781 367.632812 240.351562 367.996094 C 240.28125 368.359375 240.175781 368.714844 240.03125 369.054688 C 239.890625 369.398438 239.71875 369.726562 239.511719 370.035156 C 239.304688 370.34375 239.070312 370.628906 238.808594 370.890625 C 238.546875 371.152344 238.261719 371.386719 237.949219 371.59375 C 237.640625 371.800781 237.316406 371.972656 236.972656 372.113281 C 236.628906 372.253906 236.277344 372.363281 235.910156 372.433594 C 235.546875 372.503906 235.179688 372.539062 234.808594 372.539062 Z M 234.808594 372.539062 " fill-opacity="1" fill-rule="nonzero"/></g><g clip-path="url(#adba7b49af)"><path fill="#444343" d="M 107.847656 240.351562 C 107.476562 240.351562 107.109375 240.316406 106.746094 240.242188 C 106.382812 240.171875 106.03125 240.0625 105.691406 239.921875 C 105.347656 239.78125 105.023438 239.605469 104.714844 239.402344 C 104.410156 239.195312 104.125 238.960938 103.863281 238.699219 C 103.601562 238.4375 103.367188 238.15625 103.160156 237.847656 C 102.957031 237.539062 102.78125 237.214844 102.640625 236.871094 C 102.5 236.53125 102.394531 236.179688 102.320312 235.816406 C 102.25 235.453125 102.210938 235.085938 102.210938 234.71875 L 102.210938 223.898438 C 102.210938 203.742188 91.511719 186.21875 76.765625 182.238281 C 76.265625 182.101562 75.792969 181.902344 75.351562 181.636719 C 74.90625 181.371094 74.503906 181.050781 74.148438 180.675781 C 73.792969 180.300781 73.492188 179.882812 73.253906 179.425781 C 73.011719 178.96875 72.835938 178.484375 72.726562 177.980469 C 72.621094 177.472656 72.582031 176.964844 72.613281 176.445312 C 72.644531 175.929688 72.75 175.425781 72.917969 174.9375 C 73.089844 174.449219 73.324219 173.992188 73.621094 173.570312 C 73.917969 173.144531 74.265625 172.769531 74.667969 172.441406 C 75.023438 172.148438 75.371094 171.847656 75.710938 171.53125 C 76.050781 171.214844 76.378906 170.890625 76.699219 170.554688 C 77.015625 170.222656 77.324219 169.875 77.621094 169.523438 C 77.917969 169.167969 78.203125 168.804688 78.476562 168.429688 C 78.75 168.058594 79.011719 167.675781 79.261719 167.289062 C 79.511719 166.898438 79.75 166.503906 79.976562 166.097656 C 80.199219 165.695312 80.410156 165.285156 80.609375 164.867188 C 80.808594 164.449219 80.996094 164.027344 81.167969 163.597656 C 81.339844 163.167969 81.5 162.734375 81.644531 162.296875 C 81.789062 161.855469 81.921875 161.414062 82.039062 160.964844 C 82.15625 160.519531 82.257812 160.066406 82.347656 159.613281 C 82.433594 159.160156 82.511719 158.703125 82.570312 158.246094 C 82.628906 157.785156 82.675781 157.328125 82.707031 156.867188 C 82.738281 156.402344 82.753906 155.941406 82.757812 155.480469 C 82.757812 155.015625 82.746094 154.554688 82.71875 154.09375 C 82.691406 153.632812 82.648438 153.171875 82.59375 152.710938 C 82.539062 152.253906 82.46875 151.796875 82.382812 151.34375 C 82.296875 150.886719 82.199219 150.4375 82.085938 149.988281 C 81.972656 149.539062 81.84375 149.09375 81.703125 148.65625 C 81.5625 148.214844 81.40625 147.777344 81.238281 147.347656 C 81.070312 146.917969 80.886719 146.492188 80.691406 146.074219 C 80.496094 145.65625 80.289062 145.242188 80.066406 144.835938 C 79.84375 144.429688 79.609375 144.03125 79.363281 143.640625 C 79.117188 143.25 78.859375 142.867188 78.585938 142.492188 C 78.316406 142.117188 78.035156 141.75 77.742188 141.394531 C 77.449219 141.035156 77.144531 140.6875 76.828125 140.351562 C 76.511719 140.011719 76.183594 139.6875 75.847656 139.367188 C 75.511719 139.050781 75.167969 138.746094 74.8125 138.449219 C 74.457031 138.152344 74.089844 137.871094 73.71875 137.597656 C 73.34375 137.324219 72.960938 137.0625 72.574219 136.816406 C 72.183594 136.566406 71.785156 136.328125 71.378906 136.105469 C 70.976562 135.882812 70.5625 135.671875 70.144531 135.472656 C 69.726562 135.277344 69.304688 135.09375 68.875 134.921875 C 68.445312 134.75 68.011719 134.59375 67.570312 134.449219 C 67.132812 134.304688 66.6875 134.175781 66.238281 134.0625 C 65.792969 133.945312 65.339844 133.84375 64.886719 133.757812 C 64.433594 133.667969 63.976562 133.597656 63.519531 133.539062 C 63.058594 133.480469 62.597656 133.433594 62.136719 133.40625 C 61.675781 133.375 61.214844 133.359375 60.75 133.359375 C 60.289062 133.359375 59.828125 133.375 59.367188 133.402344 C 58.90625 133.433594 58.445312 133.476562 57.984375 133.53125 C 57.527344 133.589844 57.070312 133.664062 56.617188 133.75 C 56.160156 133.835938 55.710938 133.9375 55.261719 134.050781 C 54.816406 134.164062 54.371094 134.292969 53.929688 134.4375 C 53.492188 134.578125 53.054688 134.738281 52.625 134.90625 C 52.195312 135.078125 51.773438 135.261719 51.351562 135.457031 C 50.933594 135.652344 50.523438 135.863281 50.117188 136.085938 C 49.714844 136.308594 49.316406 136.546875 48.925781 136.792969 C 48.535156 137.039062 48.152344 137.300781 47.777344 137.574219 C 47.402344 137.84375 47.039062 138.128906 46.683594 138.421875 C 46.328125 138.71875 45.980469 139.023438 45.644531 139.339844 C 45.308594 139.65625 44.980469 139.984375 44.664062 140.320312 C 44.347656 140.660156 44.042969 141.007812 43.746094 141.363281 C 43.453125 141.71875 43.171875 142.085938 42.898438 142.460938 C 42.628906 142.832031 42.367188 143.214844 42.121094 143.605469 C 41.875 143.996094 41.640625 144.394531 41.417969 144.800781 C 41.195312 145.207031 40.984375 145.617188 40.789062 146.039062 C 40.59375 146.457031 40.410156 146.878906 40.242188 147.3125 C 40.070312 147.742188 39.914062 148.175781 39.773438 148.617188 C 39.628906 149.054688 39.503906 149.5 39.386719 149.949219 C 39.273438 150.398438 39.175781 150.847656 39.089844 151.300781 C 39.003906 151.757812 38.929688 152.214844 38.875 152.671875 C 38.816406 153.132812 38.773438 153.589844 38.746094 154.054688 C 38.71875 154.515625 38.707031 154.976562 38.707031 155.4375 C 38.707031 161.984375 41.726562 168.195312 46.992188 172.476562 C 47.390625 172.800781 47.742188 173.175781 48.039062 173.597656 C 48.339844 174.019531 48.574219 174.472656 48.75 174.960938 C 48.921875 175.449219 49.027344 175.949219 49.0625 176.464844 C 49.097656 176.980469 49.0625 177.492188 48.957031 178 C 48.851562 178.503906 48.679688 178.988281 48.441406 179.445312 C 48.203125 179.90625 47.910156 180.324219 47.554688 180.699219 C 47.203125 181.078125 46.804688 181.402344 46.363281 181.667969 C 45.921875 181.9375 45.449219 182.140625 44.953125 182.277344 C 30.242188 186.355469 19.566406 203.839844 19.566406 223.898438 L 19.566406 234.398438 C 19.566406 234.765625 19.53125 235.132812 19.457031 235.496094 C 19.386719 235.859375 19.277344 236.210938 19.136719 236.550781 C 18.992188 236.890625 18.820312 237.214844 18.613281 237.523438 C 18.410156 237.832031 18.175781 238.113281 17.914062 238.375 C 17.652344 238.636719 17.367188 238.871094 17.0625 239.074219 C 16.753906 239.28125 16.429688 239.453125 16.085938 239.59375 C 15.746094 239.738281 15.394531 239.84375 15.03125 239.914062 C 14.667969 239.988281 14.304688 240.023438 13.933594 240.023438 C 13.5625 240.023438 13.199219 239.988281 12.835938 239.914062 C 12.472656 239.84375 12.121094 239.738281 11.777344 239.59375 C 11.4375 239.453125 11.113281 239.28125 10.804688 239.074219 C 10.5 238.871094 10.214844 238.636719 9.953125 238.375 C 9.691406 238.113281 9.457031 237.832031 9.25 237.523438 C 9.046875 237.214844 8.871094 236.890625 8.730469 236.550781 C 8.589844 236.210938 8.480469 235.859375 8.410156 235.496094 C 8.335938 235.132812 8.300781 234.765625 8.300781 234.398438 L 8.300781 223.898438 C 8.300781 202.519531 18.625 183.296875 33.785156 174.789062 C 31.726562 171.980469 30.152344 168.921875 29.070312 165.609375 C 27.988281 162.300781 27.445312 158.90625 27.441406 155.421875 C 27.433594 154.324219 27.476562 153.226562 27.574219 152.128906 C 27.671875 151.035156 27.820312 149.949219 28.027344 148.867188 C 28.230469 147.789062 28.488281 146.71875 28.800781 145.664062 C 29.109375 144.609375 29.472656 143.574219 29.882812 142.554688 C 30.296875 141.535156 30.761719 140.539062 31.273438 139.566406 C 31.78125 138.59375 32.339844 137.648438 32.945312 136.730469 C 33.550781 135.8125 34.199219 134.925781 34.894531 134.074219 C 35.585938 133.21875 36.316406 132.402344 37.089844 131.621094 C 37.863281 130.839844 38.675781 130.097656 39.523438 129.398438 C 40.367188 128.695312 41.25 128.039062 42.160156 127.425781 C 43.070312 126.808594 44.011719 126.242188 44.980469 125.722656 C 45.949219 125.199219 46.9375 124.726562 47.953125 124.304688 C 48.96875 123.878906 50 123.507812 51.050781 123.1875 C 52.105469 122.867188 53.167969 122.597656 54.246094 122.382812 C 55.324219 122.167969 56.410156 122.003906 57.503906 121.894531 C 58.597656 121.789062 59.695312 121.734375 60.792969 121.734375 C 61.894531 121.734375 62.992188 121.789062 64.085938 121.894531 C 65.179688 122.003906 66.265625 122.167969 67.34375 122.382812 C 68.421875 122.597656 69.484375 122.867188 70.535156 123.1875 C 71.589844 123.507812 72.621094 123.878906 73.636719 124.304688 C 74.648438 124.726562 75.640625 125.199219 76.609375 125.722656 C 77.578125 126.242188 78.515625 126.808594 79.429688 127.425781 C 80.339844 128.039062 81.21875 128.695312 82.066406 129.398438 C 82.914062 130.097656 83.722656 130.839844 84.496094 131.621094 C 85.269531 132.402344 86.003906 133.21875 86.695312 134.074219 C 87.390625 134.925781 88.039062 135.8125 88.644531 136.730469 C 89.246094 137.648438 89.804688 138.59375 90.316406 139.566406 C 90.828125 140.539062 91.292969 141.535156 91.703125 142.554688 C 92.117188 143.574219 92.480469 144.609375 92.789062 145.664062 C 93.101562 146.71875 93.359375 147.789062 93.5625 148.867188 C 93.769531 149.949219 93.917969 151.035156 94.015625 152.128906 C 94.113281 153.226562 94.15625 154.324219 94.144531 155.421875 C 94.144531 158.882812 93.609375 162.257812 92.539062 165.546875 C 91.46875 168.835938 89.921875 171.882812 87.890625 174.683594 C 103.117188 183.132812 113.480469 202.390625 113.480469 223.882812 L 113.480469 234.699219 C 113.480469 235.070312 113.445312 235.4375 113.375 235.800781 C 113.304688 236.164062 113.195312 236.519531 113.054688 236.859375 C 112.914062 237.203125 112.742188 237.53125 112.535156 237.839844 C 112.332031 238.148438 112.097656 238.433594 111.835938 238.695312 C 111.574219 238.957031 111.289062 239.191406 110.980469 239.398438 C 110.671875 239.605469 110.347656 239.777344 110.003906 239.921875 C 109.664062 240.0625 109.308594 240.167969 108.945312 240.242188 C 108.582031 240.316406 108.214844 240.351562 107.847656 240.351562 Z M 107.847656 240.351562 " fill-opacity="1" fill-rule="nonzero"/></g><g clip-path="url(#a01dd94793)"><path fill="#444343" d="M 361.050781 240.351562 C 360.683594 240.351562 360.316406 240.316406 359.953125 240.242188 C 359.589844 240.171875 359.238281 240.0625 358.894531 239.921875 C 358.554688 239.78125 358.230469 239.605469 357.921875 239.402344 C 357.613281 239.195312 357.328125 238.960938 357.066406 238.699219 C 356.804688 238.4375 356.574219 238.15625 356.367188 237.847656 C 356.160156 237.539062 355.988281 237.214844 355.847656 236.871094 C 355.707031 236.53125 355.597656 236.179688 355.527344 235.816406 C 355.453125 235.453125 355.417969 235.085938 355.417969 234.71875 L 355.417969 223.898438 C 355.417969 203.742188 344.714844 186.21875 329.96875 182.238281 C 329.46875 182.101562 328.996094 181.902344 328.550781 181.636719 C 328.105469 181.375 327.707031 181.054688 327.347656 180.679688 C 326.992188 180.300781 326.691406 179.886719 326.453125 179.425781 C 326.210938 178.96875 326.035156 178.488281 325.925781 177.980469 C 325.816406 177.476562 325.78125 176.964844 325.8125 176.445312 C 325.84375 175.929688 325.945312 175.425781 326.117188 174.9375 C 326.289062 174.449219 326.523438 173.992188 326.820312 173.570312 C 327.117188 173.144531 327.46875 172.769531 327.867188 172.441406 C 328.226562 172.148438 328.574219 171.847656 328.914062 171.53125 C 329.253906 171.214844 329.582031 170.890625 329.902344 170.554688 C 330.21875 170.222656 330.527344 169.875 330.824219 169.523438 C 331.121094 169.167969 331.40625 168.804688 331.679688 168.429688 C 331.953125 168.058594 332.21875 167.675781 332.46875 167.289062 C 332.71875 166.898438 332.953125 166.503906 333.179688 166.097656 C 333.40625 165.695312 333.617188 165.285156 333.816406 164.867188 C 334.015625 164.449219 334.199219 164.023438 334.375 163.597656 C 334.546875 163.167969 334.703125 162.734375 334.851562 162.292969 C 334.996094 161.855469 335.125 161.410156 335.242188 160.964844 C 335.359375 160.515625 335.464844 160.066406 335.550781 159.613281 C 335.640625 159.15625 335.714844 158.703125 335.777344 158.242188 C 335.835938 157.785156 335.882812 157.324219 335.914062 156.863281 C 335.941406 156.402344 335.960938 155.9375 335.960938 155.476562 C 335.964844 155.015625 335.953125 154.550781 335.925781 154.089844 C 335.898438 153.628906 335.855469 153.167969 335.800781 152.707031 C 335.742188 152.25 335.671875 151.792969 335.585938 151.339844 C 335.503906 150.882812 335.402344 150.433594 335.289062 149.984375 C 335.175781 149.535156 335.050781 149.089844 334.90625 148.652344 C 334.765625 148.210938 334.613281 147.773438 334.441406 147.34375 C 334.273438 146.914062 334.089844 146.488281 333.894531 146.070312 C 333.699219 145.648438 333.492188 145.238281 333.269531 144.832031 C 333.046875 144.425781 332.816406 144.027344 332.566406 143.636719 C 332.320312 143.246094 332.0625 142.863281 331.792969 142.488281 C 331.519531 142.113281 331.238281 141.746094 330.945312 141.386719 C 330.652344 141.03125 330.34375 140.683594 330.03125 140.34375 C 329.714844 140.007812 329.386719 139.679688 329.050781 139.363281 C 328.714844 139.046875 328.367188 138.738281 328.011719 138.441406 C 327.65625 138.148438 327.292969 137.863281 326.917969 137.589844 C 326.546875 137.316406 326.164062 137.058594 325.773438 136.808594 C 325.382812 136.558594 324.984375 136.324219 324.582031 136.101562 C 324.175781 135.878906 323.765625 135.667969 323.347656 135.46875 C 322.929688 135.273438 322.503906 135.085938 322.074219 134.917969 C 321.644531 134.746094 321.210938 134.589844 320.769531 134.445312 C 320.332031 134.300781 319.886719 134.171875 319.4375 134.054688 C 318.992188 133.941406 318.539062 133.839844 318.085938 133.753906 C 317.632812 133.664062 317.175781 133.59375 316.714844 133.535156 C 316.257812 133.476562 315.796875 133.433594 315.335938 133.402344 C 314.875 133.375 314.410156 133.359375 313.949219 133.359375 C 313.488281 133.359375 313.023438 133.371094 312.5625 133.402344 C 312.101562 133.429688 311.640625 133.472656 311.183594 133.53125 C 310.722656 133.589844 310.265625 133.660156 309.8125 133.746094 C 309.359375 133.835938 308.90625 133.933594 308.457031 134.050781 C 308.011719 134.164062 307.566406 134.292969 307.128906 134.4375 C 306.6875 134.582031 306.253906 134.738281 305.824219 134.90625 C 305.390625 135.078125 304.96875 135.261719 304.550781 135.457031 C 304.132812 135.65625 303.71875 135.867188 303.3125 136.089844 C 302.910156 136.3125 302.511719 136.546875 302.121094 136.796875 C 301.730469 137.042969 301.347656 137.304688 300.976562 137.578125 C 300.601562 137.847656 300.234375 138.132812 299.878906 138.429688 C 299.523438 138.722656 299.175781 139.027344 298.839844 139.347656 C 298.503906 139.664062 298.175781 139.992188 297.859375 140.328125 C 297.546875 140.664062 297.238281 141.011719 296.945312 141.371094 C 296.652344 141.726562 296.367188 142.09375 296.097656 142.46875 C 295.824219 142.839844 295.566406 143.222656 295.320312 143.617188 C 295.074219 144.007812 294.839844 144.40625 294.617188 144.8125 C 294.394531 145.214844 294.183594 145.628906 293.988281 146.046875 C 293.792969 146.464844 293.609375 146.890625 293.441406 147.320312 C 293.273438 147.753906 293.117188 148.1875 292.972656 148.628906 C 292.832031 149.066406 292.703125 149.511719 292.589844 149.960938 C 292.476562 150.410156 292.378906 150.859375 292.292969 151.316406 C 292.207031 151.769531 292.136719 152.226562 292.078125 152.683594 C 292.023438 153.144531 291.980469 153.605469 291.953125 154.066406 C 291.925781 154.527344 291.910156 154.988281 291.914062 155.453125 C 291.914062 161.996094 294.933594 168.207031 300.199219 172.488281 C 300.601562 172.816406 300.953125 173.1875 301.25 173.609375 C 301.550781 174.03125 301.785156 174.488281 301.957031 174.972656 C 302.132812 175.460938 302.234375 175.964844 302.273438 176.480469 C 302.308594 176.996094 302.273438 177.503906 302.167969 178.011719 C 302.0625 178.519531 301.890625 179 301.652344 179.460938 C 301.414062 179.917969 301.117188 180.335938 300.765625 180.714844 C 300.410156 181.089844 300.015625 181.414062 299.570312 181.683594 C 299.128906 181.949219 298.660156 182.152344 298.160156 182.292969 C 283.453125 186.371094 272.773438 203.855469 272.773438 223.910156 L 272.773438 234.410156 C 272.773438 234.78125 272.738281 235.148438 272.664062 235.511719 C 272.59375 235.875 272.484375 236.226562 272.34375 236.566406 C 272.203125 236.910156 272.027344 237.234375 271.824219 237.542969 C 271.617188 237.847656 271.382812 238.132812 271.121094 238.394531 C 270.859375 238.65625 270.578125 238.890625 270.269531 239.09375 C 269.960938 239.300781 269.636719 239.472656 269.296875 239.617188 C 268.953125 239.757812 268.601562 239.863281 268.238281 239.9375 C 267.875 240.007812 267.507812 240.042969 267.140625 240.042969 C 266.769531 240.042969 266.402344 240.007812 266.039062 239.9375 C 265.675781 239.863281 265.324219 239.757812 264.984375 239.617188 C 264.640625 239.472656 264.316406 239.300781 264.007812 239.09375 C 263.703125 238.890625 263.417969 238.65625 263.15625 238.394531 C 262.894531 238.132812 262.660156 237.847656 262.453125 237.542969 C 262.25 237.234375 262.074219 236.910156 261.933594 236.566406 C 261.792969 236.226562 261.6875 235.875 261.613281 235.511719 C 261.542969 235.148438 261.503906 234.78125 261.503906 234.410156 L 261.503906 223.910156 C 261.503906 202.53125 271.835938 183.3125 286.988281 174.804688 C 284.929688 171.996094 283.359375 168.933594 282.273438 165.625 C 281.191406 162.316406 280.648438 158.917969 280.648438 155.4375 C 280.636719 154.335938 280.679688 153.238281 280.777344 152.144531 C 280.875 151.050781 281.027344 149.960938 281.230469 148.882812 C 281.4375 147.800781 281.695312 146.734375 282.003906 145.679688 C 282.316406 144.625 282.675781 143.585938 283.089844 142.570312 C 283.503906 141.550781 283.964844 140.554688 284.476562 139.582031 C 284.988281 138.609375 285.546875 137.664062 286.152344 136.746094 C 286.757812 135.828125 287.40625 134.941406 288.097656 134.085938 C 288.789062 133.234375 289.523438 132.414062 290.296875 131.632812 C 291.070312 130.851562 291.882812 130.113281 292.726562 129.410156 C 293.574219 128.710938 294.453125 128.050781 295.367188 127.4375 C 296.277344 126.824219 297.21875 126.253906 298.183594 125.734375 C 299.152344 125.210938 300.144531 124.738281 301.160156 124.316406 C 302.171875 123.894531 303.207031 123.519531 304.257812 123.199219 C 305.308594 122.878906 306.375 122.609375 307.453125 122.394531 C 308.53125 122.179688 309.617188 122.015625 310.710938 121.910156 C 311.804688 121.800781 312.902344 121.746094 314 121.746094 C 315.101562 121.746094 316.195312 121.800781 317.289062 121.910156 C 318.382812 122.015625 319.46875 122.179688 320.546875 122.394531 C 321.625 122.609375 322.691406 122.878906 323.742188 123.199219 C 324.792969 123.519531 325.828125 123.894531 326.839844 124.316406 C 327.855469 124.738281 328.847656 125.210938 329.816406 125.734375 C 330.785156 126.253906 331.722656 126.824219 332.636719 127.4375 C 333.546875 128.050781 334.425781 128.710938 335.273438 129.410156 C 336.121094 130.113281 336.929688 130.851562 337.703125 131.632812 C 338.476562 132.414062 339.210938 133.234375 339.902344 134.085938 C 340.59375 134.941406 341.242188 135.828125 341.847656 136.746094 C 342.453125 137.664062 343.011719 138.609375 343.523438 139.582031 C 344.035156 140.554688 344.496094 141.550781 344.910156 142.570312 C 345.324219 143.585938 345.683594 144.625 345.996094 145.679688 C 346.304688 146.734375 346.5625 147.800781 346.769531 148.882812 C 346.972656 149.960938 347.125 151.050781 347.222656 152.144531 C 347.320312 153.238281 347.363281 154.335938 347.351562 155.4375 C 347.347656 158.894531 346.8125 162.269531 345.746094 165.5625 C 344.675781 168.851562 343.125 171.898438 341.097656 174.699219 C 356.320312 183.148438 366.6875 202.402344 366.6875 223.894531 L 366.6875 234.714844 C 366.6875 235.082031 366.652344 235.449219 366.582031 235.8125 C 366.507812 236.175781 366.402344 236.527344 366.257812 236.871094 C 366.117188 237.210938 365.945312 237.539062 365.738281 237.84375 C 365.53125 238.152344 365.300781 238.4375 365.039062 238.699219 C 364.777344 238.960938 364.492188 239.195312 364.183594 239.402344 C 363.875 239.605469 363.550781 239.78125 363.207031 239.921875 C 362.867188 240.0625 362.515625 240.171875 362.152344 240.242188 C 361.789062 240.316406 361.421875 240.351562 361.050781 240.351562 Z M 361.050781 240.351562 " fill-opacity="1" fill-rule="nonzero"/></g><g fill="#444343" fill-opacity="1"><g transform="translate(37.500002, 172.021088)"><g><path d="M 2.109375 0.078125 C 1.804688 0.078125 1.566406 -0.00390625 1.390625 -0.171875 C 1.222656 -0.335938 1.140625 -0.5625 1.140625 -0.84375 C 1.140625 -1.113281 1.222656 -1.332031 1.390625 -1.5 C 1.566406 -1.675781 1.804688 -1.765625 2.109375 -1.765625 C 2.410156 -1.765625 2.644531 -1.679688 2.8125 -1.515625 C 2.988281 -1.347656 3.078125 -1.128906 3.078125 -0.859375 C 3.078125 -0.578125 2.988281 -0.347656 2.8125 -0.171875 C 2.632812 -0.00390625 2.398438 0.078125 2.109375 0.078125 Z M 2.109375 0.078125 "/></g></g></g></svg>