<svg xmlns="http://www.w3.org/2000/svg" xmlns:xlink="http://www.w3.org/1999/xlink" width="500" zoomAndPan="magnify" viewBox="0 0 375 374.999991" height="500" preserveAspectRatio="xMidYMid meet" version="1.0"><defs><g/><clipPath id="d25e9e8175"><path d="M 81 37.5 L 198 37.5 L 198 154 L 81 154 Z M 81 37.5 " clip-rule="nonzero"/></clipPath><clipPath id="022e0509df"><path d="M 5.339844 89 L 369.839844 89 L 369.839844 323 L 5.339844 323 Z M 5.339844 89 " clip-rule="nonzero"/></clipPath></defs><path fill="#269296" d="M 286.355469 224.660156 C 290.132812 224.660156 293.203125 221.585938 293.203125 217.8125 L 293.203125 115.652344 C 293.203125 111.878906 290.132812 108.804688 286.355469 108.804688 L 208.609375 108.804688 L 208.609375 146.472656 C 208.609375 156.292969 200.621094 164.285156 190.800781 164.285156 L 177.351562 164.285156 L 177.351562 217.8125 C 177.351562 221.585938 180.421875 224.660156 184.195312 224.660156 Z M 198.515625 202.515625 L 212.25 169.703125 L 230.214844 126.726562 C 231.066406 124.6875 233.058594 123.363281 235.265625 123.363281 C 237.472656 123.363281 239.460938 124.6875 240.3125 126.726562 L 258.28125 169.707031 L 260.6875 175.457031 C 260.785156 175.65625 260.871094 175.859375 260.945312 176.070312 L 272.015625 202.515625 C 273.183594 205.304688 271.871094 208.507812 269.082031 209.675781 C 266.296875 210.839844 263.089844 209.527344 261.921875 206.742188 L 252.132812 183.335938 L 218.398438 183.335938 L 208.609375 206.742188 C 207.730469 208.839844 205.699219 210.101562 203.558594 210.101562 C 202.855469 210.101562 202.140625 209.964844 201.449219 209.675781 C 198.660156 208.507812 197.347656 205.304688 198.515625 202.515625 Z M 198.515625 202.515625 " fill-opacity="1" fill-rule="nonzero"/><g clip-path="url(#d25e9e8175)"><path fill="#269296" d="M 81.792969 44.335938 L 81.792969 146.472656 C 81.792969 150.257812 84.875 153.339844 88.664062 153.339844 L 190.800781 153.339844 C 194.585938 153.339844 197.667969 150.257812 197.667969 146.472656 L 197.667969 44.335938 C 197.667969 40.546875 194.585938 37.464844 190.800781 37.464844 L 88.664062 37.464844 C 84.875 37.464844 81.792969 40.546875 81.792969 44.335938 Z M 114.164062 78.875 L 108.25 78.875 C 105.226562 78.875 102.777344 76.425781 102.777344 73.402344 C 102.777344 70.378906 105.226562 67.929688 108.25 67.929688 L 134.257812 67.929688 L 134.257812 57.316406 C 134.257812 54.296875 136.707031 51.847656 139.730469 51.847656 C 142.753906 51.847656 145.203125 54.296875 145.203125 57.316406 L 145.203125 67.929688 L 171.210938 67.929688 C 174.234375 67.929688 176.683594 70.378906 176.683594 73.402344 C 176.683594 76.425781 174.234375 78.875 171.210938 78.875 L 165.277344 78.875 C 162.15625 91.996094 155.960938 103.929688 147.414062 113.84375 C 154.703125 120.230469 163.324219 125.191406 172.894531 128.28125 C 175.769531 129.210938 177.347656 132.292969 176.417969 135.167969 C 175.671875 137.484375 173.523438 138.960938 171.214844 138.960938 C 170.65625 138.960938 170.089844 138.875 169.53125 138.695312 C 158.308594 135.070312 148.21875 129.203125 139.730469 121.648438 C 131.246094 129.203125 121.15625 135.066406 109.929688 138.695312 C 109.371094 138.875 108.804688 138.960938 108.246094 138.960938 C 105.9375 138.960938 103.789062 137.484375 103.042969 135.167969 C 102.113281 132.292969 103.691406 129.207031 106.566406 128.28125 C 116.140625 125.191406 124.761719 120.230469 132.046875 113.84375 C 123.496094 103.933594 117.296875 91.996094 114.164062 78.875 Z M 114.164062 78.875 " fill-opacity="1" fill-rule="nonzero"/></g><path fill="#269296" d="M 235.265625 143.019531 L 222.976562 172.394531 L 247.550781 172.394531 Z M 235.265625 143.019531 " fill-opacity="1" fill-rule="nonzero"/><path fill="#116568" d="M 332.484375 279.054688 C 334.015625 279.714844 335.5 279.585938 336.894531 278.667969 C 338.308594 277.742188 339.019531 276.425781 339.019531 274.75 L 339.019531 70.144531 C 339.019531 68.292969 338.101562 66.808594 336.4375 65.964844 C 314.464844 54.890625 290.761719 49.273438 265.996094 49.273438 C 246.179688 49.273438 226.894531 52.929688 208.609375 60.136719 L 208.609375 97.863281 L 286.355469 97.863281 C 296.164062 97.863281 304.144531 105.84375 304.144531 115.652344 L 304.144531 217.8125 C 304.144531 227.621094 296.164062 235.601562 286.355469 235.601562 L 192.96875 235.601562 L 192.96875 282.0625 C 215.617188 271.121094 240.671875 265.359375 265.996094 265.359375 C 289.101562 265.359375 311.472656 269.964844 332.484375 279.058594 Z M 332.484375 279.054688 " fill-opacity="1" fill-rule="nonzero"/><path fill="#116568" d="M 38.550781 65.96875 C 36.894531 66.808594 35.976562 68.292969 35.976562 70.144531 L 35.976562 274.75 C 35.976562 276.425781 36.683594 277.742188 38.085938 278.65625 C 39.496094 279.578125 40.988281 279.714844 42.515625 279.054688 C 63.523438 269.964844 85.894531 265.359375 109 265.359375 C 134.324219 265.359375 159.378906 271.105469 182.027344 282.042969 L 182.027344 235.464844 C 173.238281 234.390625 166.40625 226.886719 166.40625 217.808594 L 166.40625 164.28125 L 88.664062 164.28125 C 78.839844 164.28125 70.851562 156.292969 70.851562 146.46875 L 70.851562 53.972656 C 59.675781 56.769531 48.832031 60.78125 38.550781 65.96875 Z M 38.550781 65.96875 " fill-opacity="1" fill-rule="nonzero"/><path fill="#269296" d="M 153.984375 78.875 L 125.460938 78.875 C 128.257812 88.960938 133.167969 98.171875 139.730469 105.984375 C 146.289062 98.171875 151.195312 88.960938 153.984375 78.875 Z M 153.984375 78.875 " fill-opacity="1" fill-rule="nonzero"/><g clip-path="url(#022e0509df)"><path fill="#116568" d="M 364.917969 89.242188 L 349.960938 89.242188 L 349.960938 274.75 C 349.960938 280.117188 347.386719 284.878906 342.898438 287.816406 C 338.445312 290.75 333.0625 291.222656 328.144531 289.101562 C 308.507812 280.605469 287.597656 276.300781 265.992188 276.300781 C 239.453125 276.300781 213.226562 283.050781 190.144531 295.820312 C 190.046875 295.878906 189.941406 295.917969 189.839844 295.964844 C 189.75 296.011719 189.660156 296.058594 189.566406 296.097656 C 189.414062 296.160156 189.261719 296.207031 189.109375 296.253906 C 189.039062 296.277344 188.96875 296.304688 188.894531 296.324219 C 188.699219 296.375 188.503906 296.410156 188.304688 296.441406 C 188.273438 296.445312 188.238281 296.457031 188.207031 296.460938 C 187.972656 296.488281 187.734375 296.507812 187.5 296.507812 C 187.441406 296.507812 187.378906 296.496094 187.316406 296.496094 C 187.144531 296.488281 186.972656 296.484375 186.800781 296.460938 C 186.71875 296.449219 186.644531 296.429688 186.5625 296.414062 C 186.410156 296.390625 186.257812 296.363281 186.105469 296.324219 C 186.015625 296.300781 185.929688 296.265625 185.839844 296.238281 C 185.707031 296.195312 185.574219 296.15625 185.441406 296.101562 C 185.332031 296.058594 185.230469 296.003906 185.121094 295.949219 C 185.03125 295.90625 184.9375 295.871094 184.847656 295.820312 C 161.765625 283.050781 135.539062 276.300781 109 276.300781 C 87.394531 276.300781 66.488281 280.605469 46.855469 289.097656 C 41.953125 291.214844 36.574219 290.742188 32.09375 287.8125 C 27.605469 284.878906 25.03125 280.117188 25.03125 274.75 L 25.03125 89.242188 L 10.074219 89.242188 C 7.484375 89.242188 5.375 91.347656 5.375 93.9375 L 5.375 300.605469 C 5.375 303.195312 7.484375 305.304688 10.074219 305.304688 L 159.777344 305.304688 C 161.898438 305.304688 163.828125 306.527344 164.730469 308.445312 C 168.882812 317.277344 177.816406 322.984375 187.496094 322.984375 C 197.171875 322.984375 206.105469 317.277344 210.257812 308.445312 C 211.160156 306.527344 213.089844 305.304688 215.210938 305.304688 L 364.914062 305.304688 C 367.503906 305.304688 369.613281 303.195312 369.613281 300.605469 L 369.613281 93.941406 C 369.613281 91.351562 367.507812 89.242188 364.914062 89.242188 Z M 364.917969 89.242188 " fill-opacity="1" fill-rule="nonzero"/></g><g fill="#116568" fill-opacity="1"><g transform="translate(118.832185, 212.064389)"><g><path d="M 2.109375 0.078125 C 1.804688 0.078125 1.566406 -0.00390625 1.390625 -0.171875 C 1.222656 -0.335938 1.140625 -0.5625 1.140625 -0.84375 C 1.140625 -1.113281 1.222656 -1.332031 1.390625 -1.5 C 1.566406 -1.675781 1.804688 -1.765625 2.109375 -1.765625 C 2.410156 -1.765625 2.644531 -1.679688 2.8125 -1.515625 C 2.988281 -1.347656 3.078125 -1.128906 3.078125 -0.859375 C 3.078125 -0.578125 2.988281 -0.347656 2.8125 -0.171875 C 2.632812 -0.00390625 2.398438 0.078125 2.109375 0.078125 Z M 2.109375 0.078125 "/></g></g></g></svg>